<svg xmlns="http://www.w3.org/2000/svg" xmlns:xlink="http://www.w3.org/1999/xlink" id="Layer_1" x="0px" y="0px" viewBox="0 0 40 40" style="enable-background:new 0 0 40 40;" xml:space="preserve"><style type="text/css">	.st0{fill:#1A7E7D;}	.st1{fill:#3AA8A6;}	.st2{fill:#FFFFFF;}</style><g>	<path class="st0" d="M2.9,39.8c-0.13,0-0.26,0-0.39,0c-0.3-0.19-0.34-0.48-0.34-0.8c0.01-3.53,0-7.05,0-10.58c0-0.15,0-0.3,0-0.5  c-0.44,0-0.84-0.01-1.23,0c-0.32,0.01-0.58-0.07-0.76-0.35c0-4.87,0-9.75,0-14.62c0.02-0.07,0.06-0.14,0.07-0.22  c0.29-1.52,1.14-2.63,2.53-3.3c0.45-0.22,0.96-0.32,1.46-0.48C2.98,8.34,2.24,7.28,1.86,5.95C1.57,4.96,1.52,3.96,1.77,2.97  c0.55-2.18,2.4-2.96,4.33-2.73c1.72,0.2,2.8,1.15,3.2,2.7c0.2,0.79,0.21,1.58,0.07,2.38c-0.3,1.6-1.05,2.89-2.58,3.68  c0.1,0.03,0.16,0.06,0.22,0.06c2,0.24,3.96,2.06,3.87,4.7c-0.04,1.24-0.01,2.48-0.01,3.71c0,0.14,0,0.27,0,0.42  c0.68,0,1.3,0,1.97,0c0-0.16,0-0.3,0-0.44c0-1.47,0-2.94,0-4.41c0-0.6,0.16-0.76,0.75-0.76c0.98,0,1.96,0,2.94,0  c0.28,0,0.56,0,0.88,0c0-0.2,0-0.35,0-0.5c0-3.6,0-7.19,0-10.79c0-0.66,0.14-0.8,0.79-0.8c6.92,0,13.85,0,20.77,0  c0.67,0,0.82,0.14,0.82,0.81c0,12.66,0,25.32,0.01,37.98c0,0.33-0.07,0.6-0.32,0.82c-7.25,0-14.49,0-21.74,0  c-0.26-0.19-0.33-0.45-0.33-0.77c0.01-4.03,0.01-8.07,0.01-12.1c0-0.16,0-0.32,0-0.5c-1.21,0-2.36,0-3.51,0  c-1.06,0-1.07-0.01-1.07-1.09c0-0.89,0-1.78,0-2.67c0-0.13-0.02-0.27-0.03-0.39c-0.67,0-1.3,0-1.95,0c0,0.17,0,0.31,0,0.45  c0,1.48,0,2.96,0,4.45c0,0.58-0.15,0.73-0.73,0.74c-0.41,0-0.81,0-1.25,0c0,0.22,0,0.38,0,0.53c0,3.51,0,7.01,0,10.52  c0,0.34-0.02,0.65-0.35,0.83c-0.13,0-0.26,0-0.39,0c-0.26-0.19-0.33-0.45-0.33-0.77c0.01-3.54,0.01-7.09,0.01-10.63  c0-0.15,0-0.3,0-0.45c-1.56,0-3.06,0-4.59,0c0,0.19,0,0.34,0,0.49c0,3.52,0,7.04,0,10.56C3.25,39.33,3.2,39.62,2.9,39.8z   M38.71,1.29c-6.75,0-13.46,0-20.19,0c0,3.66,0,7.3,0,10.99c0.17,0,0.32,0,0.47,0c2.41,0,4.82,0,7.23,0c0.6,0,0.76,0.16,0.76,0.76  c0,4.22,0,8.43,0,12.65c0,0.6-0.15,0.74-0.76,0.74c-2.41,0-4.82,0-7.23,0c-0.15,0-0.3,0-0.46,0c0,4.12,0,8.2,0,12.27  c6.74,0,13.46,0,20.18,0C38.71,26.23,38.71,13.78,38.71,1.29z M25.9,13.38c-1.17,0-2.31,0-3.47,0c-0.01,0.15-0.02,0.27-0.02,0.4  c0,0.77,0,1.55,0,2.32c0,0.75-0.26,0.94-0.95,0.68c-0.41-0.15-0.81-0.33-1.23-0.46c-0.16-0.05-0.35-0.05-0.51,0  c-0.5,0.16-0.99,0.35-1.49,0.52c-0.48,0.16-0.79-0.05-0.79-0.56c-0.01-0.83,0-1.65,0-2.48c0-0.14,0-0.27,0-0.41  c-1.2,0-2.34,0-3.49,0c0,1.52,0,3,0,4.53c0.79,0,1.56-0.01,2.33,0c1.46,0.03,2.47,1.48,2.01,2.86c-0.29,0.87-1.09,1.46-2.02,1.47  c-0.77,0.01-1.54,0-2.31,0c0,1.06,0,2.07,0,3.09c4,0,7.97,0,11.96,0C25.9,21.35,25.9,17.37,25.9,13.38z M9.78,22.25  c-0.79,0-1.54,0.01-2.29,0c-1.16-0.01-2.01-0.7-2.26-1.83c-0.46-2.1-0.92-4.2-1.37-6.3c-0.18-0.85,0.07-1.59,0.74-2.15  c1.3-1.08,3.16-0.36,3.54,1.37c0.29,1.33,0.58,2.67,0.87,4c0.1,0.48,0.26,0.59,0.76,0.55c0.01-0.06,0.02-0.12,0.02-0.18  c0-1.43,0.02-2.86-0.01-4.29c-0.03-1.6-1.12-2.98-2.7-3.22c-0.99-0.15-2.04-0.16-3.04-0.02c-1.68,0.24-2.78,1.67-2.78,3.4  c-0.01,4.31,0,8.61,0,12.92c0,0.11,0.01,0.22,0.02,0.35c2.84,0,5.66,0,8.49,0C9.78,25.31,9.78,23.8,9.78,22.25z M11.8,21.18  c1.46,0,2.91,0.01,4.37,0c0.73-0.01,1.19-0.52,1.13-1.22c-0.06-0.58-0.52-0.97-1.19-0.97c-2.15,0-4.31,0-6.46,0  c-0.87,0-1.47-0.48-1.66-1.33c-0.31-1.38-0.6-2.77-0.91-4.15c-0.16-0.71-0.71-1.08-1.35-0.94c-0.61,0.14-0.95,0.72-0.8,1.41  c0.44,2.04,0.88,4.08,1.33,6.11c0.17,0.77,0.56,1.08,1.36,1.08C9.02,21.18,10.41,21.18,11.8,21.18z M5.52,1.27  c-1.31,0-2.27,0.54-2.6,1.6c-0.5,1.59-0.26,3.1,0.82,4.39c1.04,1.24,2.6,1.2,3.63-0.05C8.22,6.2,8.5,5,8.34,3.71  C8.14,2.06,7.19,1.27,5.52,1.27z M18.53,13.38c0,0.74,0,1.46,0,2.27c0.94-0.59,1.85-0.66,2.78-0.03c0-0.82,0-1.53,0-2.25  C20.36,13.38,19.45,13.38,18.53,13.38z"></path>	<path class="st1" d="M18.53,13.38c0.92,0,1.83,0,2.78,0c0,0.72,0,1.43,0,2.25c-0.92-0.63-1.84-0.56-2.78,0.03  C18.53,14.84,18.53,14.12,18.53,13.38z"></path>	<path class="st0" d="M33.1,17.22c0-0.56-0.01-1.06,0-1.57c0.01-0.5,0.19-0.68,0.68-0.68c1.03,0,2.06,0,3.09,0  c0.49,0,0.68,0.19,0.68,0.68c0,2.9,0,5.8,0,8.7c0,0.49-0.19,0.68-0.68,0.68c-1.02,0-2.04,0-3.05,0c-0.54,0-0.71-0.18-0.72-0.72  c0-1.26,0-2.53,0-3.79c0-0.14,0-0.28,0-0.46c-0.76,0-1.48,0-2.19,0c-0.65,0-1.15-0.26-1.42-0.88c-0.4-0.93,0.26-1.94,1.29-1.96  C31.53,17.2,32.29,17.22,33.1,17.22z M36.45,23.93c0-2.65,0-5.25,0-7.86c-0.77,0-1.51,0-2.28,0c0,0.2,0,0.38,0,0.55  c0,0.19,0,0.38,0,0.56c1.22,0.13,1.75,0.54,1.79,1.36c0.04,0.88-0.41,1.29-1.77,1.56c0,1.27,0,2.53,0,3.82  C34.95,23.93,35.69,23.93,36.45,23.93z M32.67,18.29c-0.59,0-1.18,0-1.78,0c-0.25,0-0.45,0.07-0.44,0.35  c0.01,0.26,0.2,0.34,0.43,0.34c1.18,0,2.37,0,3.55,0c0.25,0,0.45-0.08,0.44-0.36c-0.01-0.29-0.22-0.33-0.47-0.33  C33.83,18.3,33.25,18.29,32.67,18.29z"></path></g></svg>