<svg xmlns="http://www.w3.org/2000/svg" xmlns:xlink="http://www.w3.org/1999/xlink" id="Layer_1" x="0px" y="0px" viewBox="0 0 40 40" style="enable-background:new 0 0 40 40;" xml:space="preserve"><style type="text/css">	.st0{fill:#1A7E7D;}	.st1{fill:#3AA8A6;}	.st2{fill:#FFFFFF;}</style><g>	<path class="st0" d="M24.56,29.47c0.39-0.2,0.69-0.34,0.97-0.5c2.02-1.17,4.04-2.36,6.07-3.53c0.93-0.54,1.9-1.01,3-1.07  c0.99-0.06,1.85,0.23,2.41,1.1c0.56,0.88,0.57,1.82,0.07,2.72c-0.19,0.35-0.51,0.68-0.85,0.89c-3.76,2.34-7.54,4.66-11.31,6.98  c-1.28,0.79-2.63,0.95-4.07,0.57c-2.45-0.66-4.9-1.3-7.34-1.98c-0.45-0.13-0.83-0.13-1.2,0.16c-0.12,0.09-0.26,0.16-0.43,0.25  c0.2,0.35,0.38,0.67,0.56,1c0.47,0.87,0.25,1.72-0.6,2.22c-0.56,0.33-1.13,0.65-1.71,0.96c-0.83,0.44-1.69,0.2-2.16-0.61  c-1.73-3.04-3.46-6.09-5.18-9.14c-0.47-0.84-0.22-1.71,0.6-2.19c0.53-0.31,1.07-0.61,1.6-0.91c0.94-0.52,1.79-0.29,2.33,0.64  c0.07,0.12,0.14,0.25,0.23,0.4c0.27-0.15,0.51-0.29,0.76-0.43c1.4-0.81,2.8-1.63,4.21-2.43c1.03-0.58,2.12-1,3.33-0.81  c0.51,0.08,1.01,0.25,1.5,0.42c1.85,0.65,3.69,1.32,5.62,1.71c1.35,0.27,2.15,1.76,1.74,3.08C24.68,29.1,24.64,29.23,24.56,29.47z   M11.25,33.96c0.32-0.18,0.61-0.33,0.88-0.51c0.38-0.26,0.75-0.28,1.18-0.16c2.63,0.72,5.27,1.42,7.9,2.13  c1.06,0.28,2.07,0.16,3.01-0.42c3.77-2.32,7.55-4.64,11.31-6.98c0.23-0.14,0.44-0.4,0.53-0.64c0.36-1-0.3-1.83-1.36-1.76  c-0.89,0.06-1.66,0.44-2.41,0.87c-2.05,1.19-4.09,2.37-6.13,3.57c-1.04,0.62-2.16,0.92-3.34,0.67c-1.72-0.37-3.42-0.82-5.13-1.26  c-0.36-0.09-0.52-0.45-0.43-0.77c0.1-0.34,0.43-0.52,0.81-0.41c0.76,0.2,1.51,0.43,2.27,0.62c0.63,0.16,1.26,0.34,1.91,0.43  c0.75,0.1,1.2-0.26,1.31-0.92c0.1-0.59-0.31-1.18-0.97-1.31c-1.94-0.38-3.79-1.06-5.65-1.73c-0.4-0.14-0.82-0.29-1.24-0.36  c-0.96-0.15-1.8,0.22-2.6,0.68c-1.58,0.9-3.15,1.81-4.72,2.72c-0.06,0.04-0.12,0.09-0.19,0.14C9.22,30.36,10.22,32.14,11.25,33.96z   M5.96,27.34c-0.12,0.05-0.18,0.06-0.22,0.08C5.16,27.75,4.57,28.08,4,28.41c-0.21,0.12-0.2,0.31-0.09,0.51  c0.24,0.41,0.46,0.82,0.7,1.23c1.45,2.57,2.91,5.14,4.36,7.7c0.24,0.42,0.31,0.44,0.74,0.2c0.47-0.26,0.93-0.54,1.4-0.79  c0.33-0.17,0.38-0.37,0.19-0.69c-0.56-0.96-1.1-1.93-1.65-2.89c-1.12-1.98-2.23-3.96-3.36-5.93C6.2,27.6,6.06,27.47,5.96,27.34z"></path>	<path class="st0" d="M30.18,16.89c0.69,1.48,1.37,2.93,2.04,4.39c0.09,0.2,0.17,0.46,0.14,0.67c-0.06,0.48-0.49,0.71-1.04,0.62  c-0.61-0.1-1.21-0.22-1.82-0.31c-0.11-0.02-0.3,0.07-0.36,0.17c-0.33,0.52-0.63,1.06-0.93,1.59c-0.17,0.31-0.42,0.51-0.78,0.5  c-0.38-0.01-0.61-0.25-0.76-0.59c-0.58-1.27-1.18-2.54-1.77-3.8c-0.26-0.57-0.9-0.86-1.53-0.74c-0.49,0.09-0.82,0.32-1.03,0.81  c-0.52,1.24-1.13,2.44-1.68,3.67c-0.16,0.36-0.38,0.64-0.8,0.65c-0.4,0.01-0.63-0.24-0.82-0.57c-0.27-0.49-0.58-0.97-0.84-1.46  c-0.12-0.23-0.25-0.28-0.49-0.23c-0.55,0.12-1.11,0.19-1.66,0.3c-0.37,0.07-0.71,0.06-0.96-0.26c-0.25-0.32-0.19-0.65-0.03-0.99  c0.64-1.36,1.27-2.72,1.9-4.08c0.05-0.1,0.09-0.21,0.15-0.34c-0.29-0.13-0.57-0.24-0.84-0.36c-1.06-0.48-1.62-1.41-1.55-2.57  c0.02-0.34,0.04-0.68,0.11-1.01c0.15-0.65-0.01-1.22-0.32-1.8c-0.27-0.5-0.51-1.04-0.64-1.59c-0.18-0.8,0.1-1.52,0.67-2.12  c0.23-0.25,0.47-0.49,0.74-0.7c0.55-0.42,0.85-0.97,0.94-1.65c0.04-0.3,0.13-0.59,0.2-0.88c0.32-1.15,1.23-1.88,2.42-1.93  c0.44-0.02,0.89-0.02,1.33-0.08c0.27-0.04,0.56-0.15,0.79-0.29c0.4-0.25,0.76-0.56,1.14-0.83c0.95-0.68,2.08-0.69,3.04-0.02  c0.12,0.08,0.24,0.16,0.34,0.26c0.75,0.75,1.68,0.96,2.71,0.98c1.55,0.02,2.43,0.71,2.71,2.24c0.21,1.12,0.72,1.96,1.58,2.69  c1.1,0.94,1.3,2.07,0.58,3.34c-0.54,0.97-0.75,1.91-0.56,3.02c0.27,1.56-0.32,2.44-1.79,3.08C30.55,16.72,30.37,16.8,30.18,16.89z   M26.03,18.7c0.64-0.01,0.98-0.2,1.29-0.68c1.32-2.02,1.02-1.7,3.14-2.63c0.68-0.3,0.94-0.72,0.85-1.46  c-0.27-2.26-0.35-1.98,0.74-4.11c0.32-0.62,0.21-1.14-0.3-1.64c-0.31-0.3-0.62-0.6-0.94-0.89c-0.44-0.4-0.72-0.89-0.84-1.47  c-0.09-0.43-0.19-0.87-0.31-1.3c-0.17-0.63-0.6-0.98-1.23-1.02c-0.43-0.03-0.86-0.06-1.29-0.07c-0.6-0.01-1.12-0.21-1.6-0.57  c-0.35-0.27-0.71-0.54-1.07-0.8c-0.56-0.4-1.08-0.4-1.63,0c-0.38,0.27-0.73,0.61-1.14,0.83c-0.43,0.23-0.9,0.41-1.37,0.51  c-0.45,0.1-0.94,0.07-1.41,0.1c-0.68,0.04-1.11,0.39-1.28,1.06c-0.11,0.43-0.21,0.86-0.31,1.3c-0.12,0.55-0.38,1.02-0.8,1.41  c-0.29,0.26-0.57,0.54-0.86,0.8c-0.65,0.61-0.74,1.1-0.35,1.89c0.16,0.33,0.32,0.66,0.5,0.98c0.32,0.59,0.4,1.2,0.3,1.86  c-0.06,0.41-0.11,0.83-0.14,1.25c-0.04,0.62,0.22,1.05,0.79,1.31c0.4,0.19,0.81,0.36,1.22,0.53c0.55,0.22,0.98,0.58,1.3,1.09  c0.24,0.38,0.48,0.75,0.73,1.11c0.37,0.54,0.88,0.72,1.51,0.55c0.35-0.09,0.71-0.19,1.05-0.32c0.72-0.27,1.42-0.26,2.14,0  C25.19,18.49,25.69,18.6,26.03,18.7z M29.11,17.57c-0.74,1.15-1.32,2.37-2.91,2.38c0.45,0.97,0.86,1.85,1.3,2.79  c0.3-0.5,0.56-0.93,0.8-1.38c0.2-0.37,0.47-0.52,0.9-0.43c0.5,0.11,1.02,0.18,1.6,0.27C30.23,19.97,29.69,18.82,29.11,17.57z   M18.16,17.61c-0.56,1.21-1.1,2.37-1.67,3.59c0.58-0.1,1.07-0.18,1.55-0.26c0.54-0.09,0.68-0.02,0.96,0.45  c0.25,0.43,0.51,0.87,0.79,1.35c0.43-0.91,0.82-1.75,1.21-2.59c0.02-0.04,0.03-0.1,0.05-0.19c-0.68-0.04-1.29-0.25-1.72-0.75  C18.92,18.72,18.58,18.18,18.16,17.61z"></path>	<path class="st1" d="M5.96,27.34c0.11,0.13,0.25,0.25,0.33,0.41c1.12,1.97,2.24,3.95,3.36,5.93c0.55,0.97,1.08,1.94,1.65,2.89  c0.19,0.33,0.14,0.52-0.19,0.69c-0.47,0.25-0.93,0.53-1.4,0.79c-0.43,0.24-0.5,0.22-0.74-0.2c-1.45-2.57-2.91-5.14-4.36-7.7  c-0.23-0.41-0.46-0.82-0.7-1.23C3.8,28.72,3.79,28.54,4,28.41c0.57-0.34,1.16-0.66,1.74-0.99C5.78,27.4,5.83,27.39,5.96,27.34z   M6.13,29.03c-0.01-0.34-0.29-0.62-0.63-0.62c-0.33,0-0.62,0.29-0.63,0.63c-0.01,0.36,0.29,0.64,0.65,0.63  C5.87,29.66,6.13,29.38,6.13,29.03z"></path>	<path class="st0" d="M6.13,29.03c0.01,0.35-0.26,0.62-0.6,0.63c-0.36,0.01-0.66-0.27-0.65-0.63c0-0.33,0.3-0.62,0.63-0.63  C5.84,28.41,6.12,28.69,6.13,29.03z"></path>	<path class="st0" d="M23.65,4.04c3.43,0,6.22,2.79,6.22,6.21c0,3.42-2.81,6.22-6.22,6.22c-3.42,0-6.22-2.81-6.22-6.22  C17.43,6.82,20.22,4.03,23.65,4.04z M23.66,5.29c-2.73-0.01-4.97,2.22-4.98,4.95c0,2.71,2.23,4.95,4.93,4.96  c2.73,0.01,4.98-2.21,5-4.94C28.63,7.55,26.39,5.3,23.66,5.29z"></path>	<path class="st0" d="M22.92,13.03c-0.28,0-0.56-0.12-0.79-0.34c-0.59-0.57-1.21-1.18-1.82-1.82c-0.45-0.47-0.46-1.13-0.01-1.58  c0.21-0.21,0.47-0.32,0.76-0.32c0.29,0,0.59,0.13,0.82,0.36c0.17,0.16,0.33,0.33,0.49,0.51l0.47,0.5l0.93-0.91  c0.56-0.55,1.11-1.08,1.65-1.61c0.24-0.23,0.48-0.34,0.76-0.34c0.12,0,0.24,0.02,0.37,0.06c0.42,0.14,0.67,0.43,0.75,0.88  c0.06,0.35-0.03,0.66-0.29,0.91c-1.1,1.13-2.21,2.26-3.33,3.37C23.46,12.91,23.2,13.03,22.92,13.03z M20.61,10.01  c0.01,0.03,0.01,0.06,0.01,0.09c0.01,0.13,0.03,0.32,0.17,0.46c0.28,0.3,0.57,0.59,0.86,0.88c0.25,0.25,0.49,0.49,0.73,0.74  c0.17,0.17,0.33,0.25,0.52,0.25c0.25,0,0.43-0.15,0.54-0.27c0.65-0.67,1.31-1.33,1.97-1.99l1.06-1.07  c0.06-0.06,0.11-0.12,0.16-0.19l0.21-0.26l-0.11-0.21c-0.05-0.11-0.11-0.24-0.26-0.32C26.4,8.08,26.3,8.06,26.2,8.06  c-0.09,0-0.18,0.02-0.25,0.06c-0.12,0.07-0.2,0.15-0.27,0.23l-0.91,0.92c-0.52,0.52-1.04,1.05-1.56,1.57  c-0.12,0.12-0.23,0.19-0.29,0.19c-0.07,0-0.17-0.06-0.29-0.18c-0.14-0.13-0.27-0.27-0.41-0.41C22,10.21,21.78,10,21.56,9.79  c-0.13-0.12-0.29-0.15-0.41-0.17c-0.03-0.01-0.06-0.01-0.09-0.02"></path></g></svg>